<svg xmlns="http://www.w3.org/2000/svg" viewBox="0 0 256 256" role="img" aria-label="fox"><defs><linearGradient id="fur" x1="0" y1="0" x2="1" y2="1"><stop stop-color="#ffb45f"/><stop offset="1" stop-color="#ea7b4b"/></linearGradient></defs><ellipse cx="128" cy="140" rx="78" ry="84" fill="#302953" opacity=".16"/><path d="M64 92 82 48l46 30 46-30 18 44-13 82c-6 39-28 60-51 60s-45-21-51-60z" fill="url(#fur)"/><path d="M80 61 105 79 76 94zM176 61l-25 18 29 15z" fill="#fff0d9"/><path d="M92 111c11-11 24-11 36-2 12-9 25-9 36 2-4 33-17 49-36 49s-32-16-36-49z" fill="#fff3dd"/><circle cx="104" cy="111" r="10" fill="#362c47"/><circle cx="152" cy="111" r="10" fill="#362c47"/><path d="M128 126 139 134 128 140 117 134z" fill="#3a314d"/><path d="M128 142c-5 7-12 10-19 9M128 142c5 7 12 10 19 9" fill="none" stroke="#6e5761" stroke-width="4" stroke-linecap="round"/><path d="M82 170c16-10 31-10 46-2 15-8 30-8 46 2l-8 58H90z" fill="#ffffff" stroke="#e7f0ff" stroke-width="4"/><path d="M128 169v58" stroke="#8fb7dd" stroke-width="4"/><path d="m112 181 16 12 16-12" fill="none" stroke="#6a68ff" stroke-width="6" stroke-linecap="round"/></svg>