<svg xmlns="http://www.w3.org/2000/svg" viewBox="0 0 256 256"><circle cx="79" cy="75" r="28" fill="#292e45"/><circle cx="177" cy="75" r="28" fill="#292e45"/><path d="M65 140c0-69 29-103 63-103s63 34 63 103c0 62-26 95-63 95s-63-33-63-95z" fill="#f6f7f3"/><ellipse cx="103" cy="116" rx="22" ry="27" fill="#30344a" transform="rotate(-14 103 116)"/><ellipse cx="153" cy="116" rx="22" ry="27" fill="#30344a" transform="rotate(14 153 116)"/><circle cx="104" cy="116" r="7" fill="#fff"/><circle cx="152" cy="116" r="7" fill="#fff"/><circle cx="104" cy="116" r="3" fill="#25253a"/><circle cx="152" cy="116" r="3" fill="#25253a"/><ellipse cx="128" cy="145" rx="14" ry="11" fill="#333445"/><path d="M128 154c-7 7-16 9-25 6M128 154c7 7 16 9 25 6" fill="none" stroke="#5b5b69" stroke-width="5" stroke-linecap="round"/><path d="M76 180c28-16 76-16 104 0l-10 49H86z" fill="#59b96d"/><path d="M98 181 128 203l30-22" fill="none" stroke="#ddf3b3" stroke-width="8"/><path d="M51 181c20-10 31 2 26 17-5 15-26 20-37 7" fill="none" stroke="#72bd55" stroke-width="9" stroke-linecap="round"/><path d="M44 177 61 163M52 187 70 171" stroke="#4f9446" stroke-width="5"/></svg>